<?xml version="1.0" encoding="utf-8"?>
<!-- Generator: Adobe Illustrator 18.1.1, SVG Export Plug-In . SVG Version: 6.00 Build 0)  -->
<svg version="1.1" id="Layer_1" xmlns="http://www.w3.org/2000/svg" xmlns:xlink="http://www.w3.org/1999/xlink" x="0px" y="0px"
	 viewBox="0 0 350 219.9" enable-background="new 0 0 350 219.9" xml:space="preserve">
<g>
	<g>
		<path d="M215,123.6l-40-59.7l-40,59.7L53.6,2.4l2.5-1.7L135,118.1l38.2-56.9L132.1,0h85.7l-41,61.2l38.2,56.9L293.8,0.7l2.5,1.7
			L215,123.6z M137.9,3.1L175,58.4l37.1-55.3H137.9z"/>
	</g>
	<g>
		<path d="M0,185.4h2.8l10.8,30.5l10-30.6h2l10,30.6l10.8-30.5h2.6l-12.4,34.5h-2.1l-10-29.8l-10,29.8h-2.1L0,185.4z"/>
		<path d="M95.8,185.4h2.5v15.9h21.9v-15.9h2.5v34.3h-2.5v-16.1H98.3v16.1h-2.5V185.4z"/>
		<path d="M172.2,185.4h24.4v2.4h-21.8v13.5h19.6v2.4h-19.6v13.8h22.1v2.4h-24.6V185.4z"/>
		<path d="M257.2,185.1h2.4l16,34.5h-2.8l-4.4-9.6h-20.2l-4.4,9.6h-2.6L257.2,185.1z M267.4,207.8l-9-19.8l-9.1,19.8H267.4z"/>
		<path d="M322.1,185.4h14.4c4.2,0,7.6,1.3,9.6,3.4c1.6,1.6,2.6,3.9,2.6,6.4v0.1c0,5.7-4.3,9-10,9.8l11.3,14.6h-3.2l-10.9-14.2
			h-11.2v14.2h-2.5V185.4z M336.2,203.2c5.7,0,10-2.9,10-7.8v-0.1c0-4.6-3.6-7.5-9.8-7.5h-11.7v15.4H336.2z"/>
	</g>
</g>
</svg>
