<?xml version="1.0" encoding="utf-8"?>
<svg width="235" height="20" viewBox="0 0 350 40" preserveAspectRatio="xMinYMid" xmlns="http://www.w3.org/2000/svg">
  <desc ivinci="yes" version="4.6" gridstep="20" showgrid="no" snaptogrid="no" codeplatform="0"/>
  <g id="Layer1" name="Layer 1" opacity="1">
    <g id="Shape1">
      <desc shapeid="1" type="0" basicinfo-basictype="0" basicinfo-roundedrectradius="12" basicinfo-polygonsides="6" basicinfo-starpoints="5" bounding="rect(-24.5,-17.3,49,34.6)" text="" font-familyname="" font-pixelsize="20" font-bold="0" font-underline="0" font-alignment="1" strokestyle="0" markerstart="0" markerend="0" shadowenabled="0" shadowoffsetx="0" shadowoffsety="2" shadowblur="4" shadowopacity="160" blurenabled="0" blurradius="4" transform="matrix(1,0,0,1,24.5,20.1)" pers-center="0,0" pers-size="0,0" pers-start="0,0" pers-end="0,0" locked="0" mesh="" flag=""/>
      <path id="shapePath1" d="M0,2.89999 L2.8,2.89999 L13.6,33.4 L23.6,2.8 L25.6,2.8 L35.6,33.4 L46.4,2.89999 L49,2.89999 L36.6,37.4 L34.5,37.4 L24.5,7.60001 L14.5,37.4 L12.4,37.4 L0,2.89999 Z" style="stroke:none;fill-rule:nonzero;fill:#000000;fill-opacity:1;"/>
    </g>
    <g id="Shape2">
      <desc shapeid="2" type="0" basicinfo-basictype="0" basicinfo-roundedrectradius="12" basicinfo-polygonsides="6" basicinfo-starpoints="5" bounding="rect(-13.45,-17.15,26.9,34.3)" text="" font-familyname="" font-pixelsize="20" font-bold="0" font-underline="0" font-alignment="1" strokestyle="0" markerstart="0" markerend="0" shadowenabled="0" shadowoffsetx="0" shadowoffsety="2" shadowblur="4" shadowopacity="160" blurenabled="0" blurradius="4" transform="matrix(1,0,0,1,109.25,20.05)" pers-center="0,0" pers-size="0,0" pers-start="0,0" pers-end="0,0" locked="0" mesh="" flag=""/>
      <path id="shapePath2" d="M95.8,2.89999 L98.3,2.89999 L98.3,18.8 L120.2,18.8 L120.2,2.89999 L122.7,2.89999 L122.7,37.2 L120.2,37.2 L120.2,21.1 L98.3,21.1 L98.3,37.2 L95.8,37.2 L95.8,2.89999 Z" style="stroke:none;fill-rule:nonzero;fill:#000000;fill-opacity:1;"/>
    </g>
    <g id="Shape3">
      <desc shapeid="3" type="0" basicinfo-basictype="0" basicinfo-roundedrectradius="12" basicinfo-polygonsides="6" basicinfo-starpoints="5" bounding="rect(-12.35,-17.25,24.7,34.5)" text="" font-familyname="" font-pixelsize="20" font-bold="0" font-underline="0" font-alignment="1" strokestyle="0" markerstart="0" markerend="0" shadowenabled="0" shadowoffsetx="0" shadowoffsety="2" shadowblur="4" shadowopacity="160" blurenabled="0" blurradius="4" transform="matrix(1,0,0,1,184.55,20.15)" pers-center="0,0" pers-size="0,0" pers-start="0,0" pers-end="0,0" locked="0" mesh="" flag=""/>
      <path id="shapePath3" d="M172.2,2.89999 L196.6,2.89999 L196.6,5.3 L174.8,5.3 L174.8,18.8 L194.4,18.8 L194.4,21.2 L174.8,21.2 L174.8,35 L196.9,35 L196.9,37.4 L172.3,37.4 L172.3,2.89999 L172.2,2.89999 Z" style="stroke:none;fill-rule:nonzero;fill:#000000;fill-opacity:1;"/>
    </g>
    <g id="Shape4">
      <desc shapeid="4" type="0" basicinfo-basictype="0" basicinfo-roundedrectradius="12" basicinfo-polygonsides="6" basicinfo-starpoints="5" bounding="rect(-17.2,-17.25,34.4,34.5)" text="" font-familyname="" font-pixelsize="20" font-bold="0" font-underline="0" font-alignment="1" strokestyle="0" markerstart="0" markerend="0" shadowenabled="0" shadowoffsetx="0" shadowoffsety="2" shadowblur="4" shadowopacity="160" blurenabled="0" blurradius="4" transform="matrix(1,0,0,1,258.4,19.85)" pers-center="0,0" pers-size="0,0" pers-start="0,0" pers-end="0,0" locked="0" mesh="" flag=""/>
      <path id="shapePath4" d="M257.2,2.60001 L259.6,2.60001 L275.6,37.1 L272.8,37.1 L268.4,27.5 L248.2,27.5 L243.8,37.1 L241.2,37.1 L257.2,2.60001 M267.4,25.3 L258.4,5.5 L249.3,25.3 L267.4,25.3 Z" style="stroke:none;fill-rule:nonzero;fill:#000000;fill-opacity:1;"/>
    </g>
    <g id="Shape5">
      <desc shapeid="5" type="0" basicinfo-basictype="0" basicinfo-roundedrectradius="12" basicinfo-polygonsides="6" basicinfo-starpoints="5" bounding="rect(-13.95,-17.15,27.9,34.3)" text="" font-familyname="" font-pixelsize="20" font-bold="0" font-underline="0" font-alignment="1" strokestyle="0" markerstart="0" markerend="0" shadowenabled="0" shadowoffsetx="0" shadowoffsety="2" shadowblur="4" shadowopacity="160" blurenabled="0" blurradius="4" transform="matrix(1,0,0,1,336.05,20.05)" pers-center="0,0" pers-size="0,0" pers-start="0,0" pers-end="0,0" locked="0" mesh="" flag=""/>
      <path id="shapePath5" d="M322.1,2.89999 L336.5,2.89999 C340.7,2.89999 344.1,4.2 346.1,6.3 C347.7,7.89999 348.7,10.2 348.7,12.7 L348.7,12.8 C348.7,18.5 344.4,21.8 338.7,22.6 L350,37.2 L346.8,37.2 L335.9,23 L324.7,23 L324.7,37.2 L322.2,37.2 L322.2,2.89999 L322.1,2.89999 M336.2,20.7 C341.9,20.7 346.2,17.8 346.2,12.9 L346.2,12.8 C346.2,8.2 342.6,5.3 336.4,5.3 L324.7,5.3 L324.7,20.7 L336.2,20.7 Z" style="stroke:none;fill-rule:nonzero;fill:#000000;fill-opacity:1;"/>
    </g>
  </g>
</svg>